<?xml version="1.0" encoding="utf-8"?>
<!-- Generator: Adobe Illustrator 18.0.0, SVG Export Plug-In . SVG Version: 6.00 Build 0)  -->
<!DOCTYPE svg PUBLIC "-//W3C//DTD SVG 1.1//EN" "http://www.w3.org/Graphics/SVG/1.1/DTD/svg11.dtd">
<svg version="1.1" id="Layer_1" xmlns="http://www.w3.org/2000/svg" xmlns:xlink="http://www.w3.org/1999/xlink" x="0px" y="0px"
	 viewBox="43.3 33.8 11.2 30" enable-background="new 43.3 33.8 11.2 30" xml:space="preserve">
<g>
	<path d="M53.6,53.2c-0.2-0.2-0.5-0.3-1-0.3h-1.4h-3.7H46c-0.4,0-0.6,0.1-0.8,0.2c-0.1,0.1-0.2,0.2-0.3,0.4
		c-0.1,0.2-0.1,0.4-0.1,0.8c0,0.4,0.1,0.7,0.3,0.9c0.2,0.2,0.5,0.3,1,0.3h1.4h1.2v3.9c0,0.4-0.1,0.7-0.3,0.9
		c-0.2,0.2-0.5,0.4-0.9,0.4c-1.7,0-1.5-1.2-1.6-1.7c0,0,0,0,0,0c0,0,0,0,0,0c0-0.1,0-0.1-0.1-0.1c-0.3-0.3-0.6-0.4-0.8-0.4
		c0,0,0,0,0,0c-0.1,0-0.2,0-0.3,0C44,58.9,44,60,44.3,60.9c0,0.1,0,0.1,0.1,0.2c0,0,0,0,0,0c0.2,0.5,0.5,0.9,0.8,1.2
		c0.3,0.2,0.7,0.4,1.1,0.5c0.1,0,0.2,0.1,0.3,0.1c0.6,0.2,1.5,0.1,1.9,0c1.4-0.2,2.2-1.4,2.4-2.7c0.3-1.5-0.2-3.1,0.1-4.8
		c0.3,0,0.6,0,0.8,0h0.8c0.4,0,0.6-0.1,0.8-0.2c0.1-0.1,0.2-0.2,0.3-0.4c0.1-0.2,0.1-0.4,0.1-0.8C53.9,53.7,53.8,53.4,53.6,53.2z"/>
	<path d="M53.6,51.6c0.5-0.7,0.1-1.2-0.3-1.8l-2.8-4.1c-0.2-0.3-0.4-0.6-0.6-0.9l-0.4-0.5c-0.2-0.4-0.5-0.6-1-0.6c0,0-0.1,0-0.1,0
		c-0.2,0-0.3,0-0.4,0.2c-0.1,0.1-0.2,0.2-0.2,0.4c0,0,0,0,0,0l-3.5,6.1c-0.1,0.3-0.2,0.4-0.2,0.6c0,0.3,0.1,0.7,0.6,0.9
		c0,0,0,0,0.1,0c0,0,0.1,0,0.1,0c0,0,0,0,0,0c0.9,0.1,1.8,0.1,2.6,0c1.8,0,4.1,0,4.3,0c0.2,0,0.9-0.1,1.2-0.1c0.1,0,0.2,0,0.3,0
		c0,0,0,0,0,0c0,0,0,0,0,0c0,0,0.1,0,0.1,0C53.6,51.8,53.6,51.7,53.6,51.6C53.6,51.7,53.6,51.7,53.6,51.6z"/>
	<path d="M53.2,41.8c-0.1-0.1-0.4-0.4-0.7-0.7c0.4-0.6,0.6-1.3,0.7-1.9c0.2-1.3-0.1-2.5-0.9-3.5c-0.8-1-1.8-1.6-3-1.7
		c-0.6-0.1-1.1,0-1.7,0.1c-0.6,0.2-1.1,0.4-1.5,0.8c-0.5,0.3-0.8,0.8-1.2,1.3c-0.3,0.6-0.5,1.2-0.6,1.8c-0.2,1.2,0.1,2.3,0.9,3.4
		c0.7,1,1.7,1.6,3,1.8c0.9,0.1,1.8-0.1,2.7-0.5c0.1,0.1,0.2,0.2,0.4,0.3c0.2,0.2,0.3,0.2,0.3,0.3c0.3,0.3,0.5,0.4,0.7,0.4
		c0.3,0,0.5-0.1,0.8-0.4c0.3-0.3,0.4-0.6,0.5-0.8C53.6,42.3,53.5,42.1,53.2,41.8z"/>
</g>
</svg>
