<?xml version="1.0" encoding="utf-8"?>
<!-- Generator: Adobe Illustrator 18.0.0, SVG Export Plug-In . SVG Version: 6.00 Build 0)  -->
<!DOCTYPE svg PUBLIC "-//W3C//DTD SVG 1.1//EN" "http://www.w3.org/Graphics/SVG/1.1/DTD/svg11.dtd">
<svg version="1.1" id="Layer_1" xmlns="http://www.w3.org/2000/svg" xmlns:xlink="http://www.w3.org/1999/xlink" x="0px" y="0px"
	 viewBox="0 0 40 40" enable-background="new 0 0 40 40" xml:space="preserve">
<g>
	<path d="M19.7,0.1c10.4,0,16.7,7.4,16.7,16.7c0,8.5-5.6,15.3-14.9,16.3c2.8,0.9,5.3,2.3,8.3,2.3c0.6,0,1.2-0.1,1.7-0.2l-1.6,4.2
		c-0.5,0.1-1,0.1-1.5,0.1c-4,0-7-3.7-10.9-3.7c-2.3,0-4.3,0.6-6,1.5l-1.4-3c2.2-1.2,4-1.5,5.5-1.5C7.6,31,3,24.6,3,16.9
		C3,7.5,9.3,0.1,19.7,0.1z M19.7,29.8c7.1,0,11.7-5.7,11.7-13c0-7.2-4.6-12.9-11.7-12.9C12.6,3.9,8,9.6,8,16.9
		C8,24.1,12.6,29.8,19.7,29.8z"/>
</g>
<path fill="none" stroke="#133F1E" stroke-width="2.8627" stroke-linecap="round" stroke-linejoin="round" stroke-miterlimit="10" d="
	M32.3,14"/>
<path fill="none" stroke="#133F1E" stroke-width="2.8627" stroke-linecap="round" stroke-linejoin="round" stroke-miterlimit="10" d="
	M31.8,12.1"/>
<ellipse cx="19.7" cy="16.9" rx="15" ry="14.7"/>
<g>
	<path fill="#FFFFFF" d="M19.3,27.8c-1.8,0-3.5-0.4-5-1.3c-1.4-0.8-2.6-1.9-3.5-3.4c-0.3-0.4-0.1-1,0.3-1.2c0.4-0.3,1-0.1,1.2,0.3
		c1.5,2.5,4,3.8,7,3.8c0.5,0,0.9,0.4,0.9,0.9S19.8,27.8,19.3,27.8z"/>
</g>
<path fill="none" stroke="#FFFFFF" stroke-width="1.6108" d="M10.1,24.6"/>
<path fill="none" stroke="#FFFFFF" stroke-width="1.6108" d="M19.7,3.9"/>
<path fill="none" stroke="#FFFFFF" stroke-width="1.6108" d="M19.7,3.9"/>
<path fill="none" stroke="#FFFFFF" stroke-width="1.6108" d="M30.2,10.8"/>
<g>
	<path fill="#FFFFFF" d="M28,13.2c-0.4,0-0.7-0.2-0.8-0.6c-0.1-0.2-0.2-0.5-0.3-0.7c-0.2-0.4,0-1,0.4-1.2c0.4-0.2,1,0,1.2,0.4
		c0.1,0.3,0.2,0.6,0.3,0.8c0.2,0.5-0.1,1-0.5,1.1C28.2,13.2,28.1,13.2,28,13.2z"/>
</g>
<path fill="none" stroke="#FFFFFF" stroke-width="1.6108" d="M30.6,11.8"/>
<path fill="none" stroke="#FFFFFF" stroke-width="1.6108" d="M31.4,16.9"/>
<g>
	<path fill="#FFFFFF" d="M19.3,27.8c-0.5,0-0.9-0.4-0.9-0.9s0.4-0.9,0.9-0.9c2.5,0,4.7-0.9,6.2-2.7c1.5-1.7,2.4-4.2,2.4-6.8
		c0-0.5,0.4-0.9,0.9-0.9c0.5,0,0.9,0.4,0.9,0.9c0,3.1-1,5.9-2.8,8c-0.9,1.1-2,1.9-3.3,2.4C22.2,27.5,20.8,27.8,19.3,27.8z"/>
</g>
</svg>
