<?xml version="1.0" encoding="utf-8"?>
<!-- Generator: Adobe Illustrator 18.0.0, SVG Export Plug-In . SVG Version: 6.00 Build 0)  -->
<!DOCTYPE svg PUBLIC "-//W3C//DTD SVG 1.1//EN" "http://www.w3.org/Graphics/SVG/1.1/DTD/svg11.dtd">
<svg version="1.1" id="Layer_1" xmlns="http://www.w3.org/2000/svg" xmlns:xlink="http://www.w3.org/1999/xlink" x="0px" y="0px"
	 viewBox="0 0 38 40" enable-background="new 0 0 38 40" xml:space="preserve">
<g>
	<path d="M37.3,33.3c-1-1.1-2.8-1.4-4-0.5c-2,1.4-3.4,1.7-4.8,1.7c-1.6,0-3.5-0.6-5.5-1.6l1.1-0.4c2.1-0.9,4-2.2,5.5-3.6
		c3.2-3.1,5-7.3,5-12c0-4.6-1.9-8.8-5-11.8C26.6,1.9,22.2,0,17.3,0C12.5,0,8.1,1.9,4.9,5.1C1.9,8.2,0,12.3,0,16.9
		c0,4.6,1.9,8.8,4.9,12c1.6,1.4,3.5,2.6,5.5,3.5l-0.1,0.1C8.9,33.1,8.2,34.6,9,36c0.1,0.5,0.4,0.7,0.7,1.1c0,0,0,0,0.1,0
		c0.1,0,0.2,0,0.3,0.1c0.7,0.5,1.9,0.6,2.9,0.1c0.2-0.1,1.9-0.8,3.5-0.8c1,0,2,0.2,3,0.7c2.7,1.5,5.6,2.7,9,2.7h0.1
		c2.6,0,5.4-1,8.2-2.9C38.1,36.1,38.3,34.4,37.3,33.3z"/>
	<circle fill="#FFFFFF" cx="26.3" cy="11.7" r="2.2"/>
	<g>
		<path fill="#FFFFFF" d="M7.2,23.5c3.8,4.3,10.3,5,14.8,1.4c2.1-1.7,3.6-4.1,4.4-6.7c0.4-1.2-0.8-2.5-2-2.3
			c-1.2,0.2-1.5,1.4-1.8,2.3c0-0.1,0.1-0.1,0.1-0.2c-0.4,0.9-0.9,1.7-1.5,2.5c0,0,0.1-0.1,0.1-0.2c-0.5,0.7-1.2,1.3-1.8,1.8
			c0,0,0.1-0.1,0.2-0.1c-0.6,0.4-1.2,0.8-1.8,1.1c0.1,0,0.1-0.1,0.2-0.1c-0.6,0.2-1.2,0.4-1.8,0.5c0.1,0,0.2,0,0.3,0
			c-0.7,0.1-1.4,0.1-2,0c0.1,0,0.2,0,0.2,0c-0.7-0.2-1.4-0.2-2.1-0.6c0.1,0,0.1,0.1,0.2,0.1c-0.7-0.2-1.4-0.7-1.9-1.1
			c0.1,0,0.1,0.1,0.2,0.1c-1-0.8-1.7-2.2-3.2-1.6C6.6,21,6.3,22.5,7.2,23.5z"/>
	</g>
	<path fill="#E62125" d="M7.4,9l2,2.6c0.1,0.2,0.2,0.3,0.2,0.6c0,0.2-0.1,0.4-0.2,0.5l-2,2.5c-0.2,0.2-0.4,0.4-0.7,0.4
		c-0.4,0-0.8-0.4-0.8-0.8c0-0.2,0.1-0.4,0.2-0.5l1.6-2.1L6.2,10C6,9.8,6,9.6,6,9.4C6,9,6.3,8.7,6.7,8.7C7,8.7,7.2,8.8,7.4,9z"/>
</g>
</svg>
